<?xml version="1.0" encoding="UTF-8"?>
<!DOCTYPE svg PUBLIC "-//W3C//DTD SVG 1.1//EN" "http://www.w3.org/Graphics/SVG/1.1/DTD/svg11.dtd">
<!-- Creator: CorelDRAW 2020 (64-Bit) -->
<svg xmlns="http://www.w3.org/2000/svg" xml:space="preserve" width="100mm" height="100mm" version="1.1" style="shape-rendering:geometricPrecision; text-rendering:geometricPrecision; image-rendering:optimizeQuality; fill-rule:evenodd; clip-rule:evenodd"
viewBox="0 0 10000 10000"
 xmlns:xlink="http://www.w3.org/1999/xlink"
 xmlns:xodm="http://www.corel.com/coreldraw/odm/2003">
 <defs>
  <style type="text/css">
   <![CDATA[
    .fil0 {fill:#333333}
    .fil1 {fill:red}
    .fil2 {fill:red;fill-rule:nonzero}
    .fil3 {fill:white;fill-rule:nonzero}
   ]]>
  </style>
 </defs>
 <g id="Слой_x0020_1">
  <metadata id="CorelCorpID_0Corel-Layer"/>
  <g id="_1776168940432">
   <rect class="fil0" x="-7.14" y="0.53" width="10000" height="10000" rx="2133.1" ry="2078.86"/>
   <circle class="fil1" cx="4992.87" cy="3535.58" r="1551.71"/>
   <path class="fil2" d="M4992.87 1203.39c644,0 1227.05,261.05 1649.09,683.1 395.54,395.54 649.65,932.46 680.03,1528.44l-474.82 0c-29.8,-465.07 -230.68,-883.61 -540.36,-1193.29 -336.24,-336.25 -800.8,-544.23 -1313.94,-544.23 -513.14,0 -977.7,207.98 -1313.94,544.23 -309.68,309.68 -510.56,728.22 -540.36,1193.29l-474.82 0c30.38,-595.98 284.49,-1132.9 680.03,-1528.44 422.04,-422.05 1005.09,-683.1 1649.09,-683.1zm2329.61 2442.31c-19.13,410.18 -144.57,793.03 -349.44,1121.63 -195.82,314.09 -465,578.37 -783.8,769.24l753.13 2919.79c32.2,126.29 -44.07,254.79 -170.35,287 -55.79,14.22 -111.99,7.27 -160.15,-15.79l-1618.93 -778.73 -1619.06 778.78c-117.6,56.24 -258.54,6.49 -314.78,-111.1 -25.57,-53.46 -29.23,-111.74 -14.57,-164.69l751.96 -2915.27c-318.8,-190.87 -587.98,-455.15 -783.8,-769.24 -204.87,-328.6 -330.3,-711.44 -349.43,-1121.62l474.66 0c18.58,319.17 117.41,616.35 276.57,871.64 183.64,294.53 446.59,533.73 758.46,687.2 99.52,47.56 154.97,160.22 126.67,271.18l-672.21 2606.1 1263.69 -607.84c62.16,-29.67 136.71,-32.03 203.68,0l1263.54 607.81 -670.94 -2601.15c-30.02,-107.49 19.85,-224.45 123.71,-275.25 312.61,-153.44 576.18,-392.97 760.15,-688.04 159.17,-255.29 258,-552.47 276.58,-871.65l474.66 0z"/>
   <path class="fil3" d="M3791.23 3427.71c0,-52.35 42.46,-94.81 94.81,-94.81 52.35,0 94.8,42.46 94.8,94.81l0 215.72c0,52.36 -42.45,94.81 -94.8,94.81 -52.35,0 -94.81,-42.45 -94.81,-94.81l0 -215.72zm316.24 -129.24c0,-52.35 42.46,-94.8 94.81,-94.8 52.35,0 94.8,42.45 94.8,94.8l0 474.19c0,52.35 -42.45,94.81 -94.8,94.81 -52.35,0 -94.81,-42.46 -94.81,-94.81l0 -474.19zm316.24 -334.85c0,-52.35 42.46,-94.8 94.81,-94.8 52.35,0 94.8,42.45 94.8,94.8l0 1143.89c0,52.35 -42.45,94.81 -94.8,94.81 -52.35,0 -94.81,-42.46 -94.81,-94.81l0 -1143.89zm316.24 254.59c0,-52.35 42.45,-94.81 94.81,-94.81 52.35,0 94.8,42.46 94.8,94.81l0 634.72c0,52.35 -42.45,94.81 -94.8,94.81 -52.36,0 -94.81,-42.46 -94.81,-94.81l0 -634.72zm316.23 -486.65c0,-52.35 42.45,-94.81 94.8,-94.81 52.36,0 94.81,42.46 94.81,94.81l0 1608.02c0,52.35 -42.45,94.81 -94.81,94.81 -52.35,0 -94.8,-42.46 -94.8,-94.81l0 -1608.02zm316.24 421.41c0,-52.35 42.45,-94.8 94.8,-94.8 52.35,0 94.81,42.45 94.81,94.8l0 765.19c0,52.35 -42.46,94.8 -94.81,94.8 -52.35,0 -94.8,-42.45 -94.8,-94.8l0 -765.19zm316.24 125.44c0,-52.35 42.45,-94.81 94.8,-94.81 52.35,0 94.81,42.46 94.81,94.81l0 514.31c0,52.35 -42.46,94.81 -94.81,94.81 -52.35,0 -94.8,-42.46 -94.8,-94.81l0 -514.31zm316.24 149.3c0,-52.35 42.45,-94.81 94.8,-94.81 52.35,0 94.81,42.46 94.81,94.81l0 215.72c0,52.36 -42.46,94.81 -94.81,94.81 -52.35,0 -94.8,-42.45 -94.8,-94.81l0 -215.72z"/>
  </g>
 </g>
</svg>
